# xmcd
#
# Track frame offsets: 
#        150
#        18150
#        44686
#        61304
#        77865
#        101912
#        118838
#        138430
#        160902
#        178539
#        195547
#        218361
#        233833
#
# Disc length: 3367 seconds
#
# Revision: 0
# Processed by: cddbd v1.5.2PL0 Copyright (c) Steve Scherf et al.
# Submitted via: ExactAudioCopy v0.95b4
#
DISCID=af0d250d
DTITLE=Dido - Life for Rent
DYEAR=2003
DGENRE=Rock
TTITLE0=White Flag
TTITLE1=Stoned
TTITLE2=Life for Rent
TTITLE3=Mary?In India
TTITLE4=See You When
TTITLE5=Dont Leave Home
TTITLE6=Who Makes You Feel
TTITLE7=Sand In My Shoes
TTITLE8=Do You Have
TTITLE9=This Land is mine
TTITLE10=See the sun
TTITLE11=Unkown
TTITLE12=White Flag
EXTD=
EXTT0=
EXTT1=
EXTT2=
EXTT3=
EXTT4=
EXTT5=
EXTT6=
EXTT7=
EXTT8=
EXTT9=
EXTT10=
EXTT11=
EXTT12=
PLAYORDER=
